<svg viewBox="0 0 712 101" fill="none" xmlns="http://www.w3.org/2000/svg"><path d="M170.2 42.5c-7.3-1.8-13.5-3.3-13.5-7.4 0-4.2 3.5-6.7 9.4-6.7 7.7 0 15.1 1.5 20.3 6.5l.6.5 9.3-11.6-.5-.4c-7.3-7-16.8-10.6-28.3-10.6-16.1 0-27.8 9.9-27.8 23.4 0 17.3 14.9 20.9 26.9 23.9 7.6 1.9 14.2 3.5 14.2 8.1 0 3.5-3.1 7.6-11.7 7.6a29.7 29.7 0 01-22.2-10l-.6-.6-9.2 13.6.4.4c7.7 8 18.1 12.1 30.9 12.1 18.1 0 29.3-9.5 29.3-24.7 0-17.3-15.8-21.3-27.5-24.1zM701.3 19h1.8c.6 0 1.1-.1 1.4-.4.3-.3.5-.7.5-1.2s-.2-.9-.5-1.2c-.3-.3-.8-.4-1.4-.4h-1.8V19zm4.8-.1c-.3.5-.7.8-1.2 1l1.8 2.7h-1.8l-1.5-2.4h-2.1v2.4h-1.6v-8.3h3.4c1.1 0 1.9.2 2.5.7.6.5.9 1.2.9 2.1.1.8-.1 1.4-.4 1.8zm.3 5.9c1.1-.6 1.9-1.5 2.5-2.5a6.92 6.92 0 000-6.8 6.76 6.76 0 00-6-3.4c-1.3 0-2.4.3-3.5.9-1.1.6-1.9 1.5-2.5 2.5-.6 1-.9 2.2-.9 3.4 0 1.2.3 2.4.9 3.4a6.76 6.76 0 006 3.4c1.3 0 2.5-.3 3.5-.9zm.8-13.3c1.3.8 2.3 1.8 3.1 3.1.8 1.3 1.1 2.7 1.1 4.2s-.4 2.9-1.1 4.2a9.2 9.2 0 01-3.1 3.1c-1.3.8-2.7 1.2-4.3 1.2-1.6 0-3-.4-4.3-1.1a9.2 9.2 0 01-3.1-3.1c-.7-1.3-1.1-2.7-1.1-4.2s.4-2.9 1.1-4.2c.7-1.3 1.8-2.3 3.1-3.1 1.3-.8 2.7-1.2 4.3-1.2 1.6-.1 3 .3 4.3 1.1zM595.4 71.3c-3.5 1.9-7.9 2.8-13 2.8-5.4 0-9.9-2-13.8-6-3.9-4-5.8-9.4-5.8-16 0-6.7 2-12.1 6.1-16.1 4-4 9-6.1 14.9-6.1 3.1 0 5.9.5 8.6 1.6 2.6 1.1 5.6 3 8.8 5.8l1 .9 9.9-14.5-.8-.7c-8-7.2-17.5-10.9-28.3-10.9s-20.2 3.8-27.9 11.4c-7.7 7.6-11.6 17.2-11.6 28.5s3.8 20.9 11.4 28.3c7.5 7.4 17 11.2 28 11.2 13.2 0 23.7-4.3 31.2-12.8l.3-.4V50.4h-18.9v20.9h-.1zM502.4 60h32.9V43.6h-32.9V30.9H539V13.8h-55.4v76h56.5V72.9h-37.7V60zM249.6 13.9v42.2c0 5.6-1.3 10.1-3.8 13.3a12.2 12.2 0 01-10 4.7c-4.3 0-7.6-1.5-10.1-4.7s-3.8-7.7-3.8-13.3V13.9H203v42.7c0 11 3.1 19.6 9.3 25.6 6.1 6 14 9 23.5 9s17.4-3 23.5-9c6.1-6 9.2-14.6 9.2-25.6V13.9h-18.9zM315.7 49.8c-1.7 1.9-5.2 2.9-10.3 2.9h-9.8V30.4h8.2c5.1 0 8.9.8 11.2 2.5 2.2 1.6 3.3 4.2 3.3 8.1 0 3.9-.9 6.9-2.6 8.8zm13.7-29c-5.4-4.6-13.9-6.9-25.5-6.9h-27.2v76h18.8V69.4h8.6c11.1 0 19.5-2.2 25-6.6 5.6-4.4 8.4-11.5 8.4-20.9.1-9.4-2.7-16.5-8.1-21.1zM362.2 60.1h32.9V43.7h-32.9V30.9h36.6v-17h-55.5v76h56.6V73h-37.7V60.1zM450.3 39.6c0 3.6-.9 6.2-2.6 7.8-1.8 1.6-5.4 2.4-10.7 2.4h-10.8V30.4h11.1c5 0 8.5.7 10.4 2 1.7 1.2 2.6 3.7 2.6 7.2zm19.2-.1c0-8.9-2.6-15.5-7.8-19.6-5.1-4-13.6-6.1-25.2-6.1h-29.1v76h18.8V66.3h9.5L452 89.8h23.2l-19.1-27c8.9-3.7 13.4-11.6 13.4-23.3zM658.9 11.7c-22 0-39.8 17.8-39.8 39.7 0 21.9 17.8 39.7 39.8 39.7 22 0 39.8-17.8 39.8-39.7 0-21.9-17.9-39.7-39.8-39.7zm0 18.5c11.7 0 21.3 9.5 21.3 21.2s-9.5 21.2-21.3 21.2a21.3 21.3 0 01-21.3-21.2c0-11.7 9.5-21.2 21.3-21.2zM50.6.2C22.8.2.2 22.8.2 50.6c0 10 2.9 19.4 8 27.2L.2 101l23.2-7.9c7.8 5 17.2 7.9 27.2 7.9 27.8 0 50.4-22.6 50.4-50.4C101 22.7 78.4.2 50.6.2zm27.6 78l-12.6-4.3a27.7 27.7 0 118.3-8.3l4.3 12.6z" /></svg>